<?xml version="1.0" encoding="UTF-8"?>
<!DOCTYPE svg PUBLIC "-//W3C//DTD SVG 1.1//EN" "http://www.w3.org/Graphics/SVG/1.1/DTD/svg11.dtd">
<svg xmlns="http://www.w3.org/2000/svg" version="1.1" width="500px" height="500px" style="shape-rendering:geometricPrecision; text-rendering:geometricPrecision; image-rendering:optimizeQuality; fill-rule:evenodd; clip-rule:evenodd" xmlns:xlink="http://www.w3.org/1999/xlink">
<g><path style="opacity:0.004" fill="#fefffe" d="M 408.5,7.5 C 409.833,8.16667 409.833,8.16667 408.5,7.5 Z"/></g>
<g><path style="opacity:0.004" fill="#fefffe" d="M 251.5,8.5 C 252.833,9.16667 252.833,9.16667 251.5,8.5 Z"/></g>
<g><path style="opacity:0.004" fill="#fefffe" d="M 8.5,13.5 C 9.83333,14.1667 9.83333,14.1667 8.5,13.5 Z"/></g>
<g><path style="opacity:0.004" fill="#fefffe" d="M 158.5,13.5 C 159.833,14.1667 159.833,14.1667 158.5,13.5 Z"/></g>
<g><path style="opacity:0.004" fill="#fefffe" d="M 3.5,18.5 C 4.83333,19.1667 4.83333,19.1667 3.5,18.5 Z"/></g>
<g><path style="opacity:0.004" fill="#fefffe" d="M 299.5,18.5 C 300.833,19.1667 300.833,19.1667 299.5,18.5 Z"/></g>
<g><path style="opacity:0.004" fill="#fefffe" d="M 162.5,19.5 C 163.833,20.1667 163.833,20.1667 162.5,19.5 Z"/></g>
<g><path style="opacity:0.004" fill="#fefffe" d="M 0.5,24.5 C 1.83333,25.1667 1.83333,25.1667 0.5,24.5 Z"/></g>
<g><path style="opacity:0.004" fill="#fefffe" d="M 278.5,25.5 C 279.833,26.1667 279.833,26.1667 278.5,25.5 Z"/></g>
<g><path style="opacity:0.004" fill="#fefffe" d="M 335.5,32.5 C 336.833,33.1667 336.833,33.1667 335.5,32.5 Z"/></g>
<g><path style="opacity:0.004" fill="#fefffe" d="M 371.5,33.5 C 372.833,34.1667 372.833,34.1667 371.5,33.5 Z"/></g>
<g><path style="opacity:0.004" fill="#fefffe" d="M 66.5,35.5 C 67.8333,36.1667 67.8333,36.1667 66.5,35.5 Z"/></g>
<g><path style="opacity:0.004" fill="#fefffe" d="M 99.5,38.5 C 100.833,39.1667 100.833,39.1667 99.5,38.5 Z"/></g>
<g><path style="opacity:0.004" fill="#fefffe" d="M 201.5,50.5 C 202.833,51.1667 202.833,51.1667 201.5,50.5 Z"/></g>
<g><path style="opacity:0.004" fill="#fefffe" d="M 407.5,53.5 C 408.833,54.1667 408.833,54.1667 407.5,53.5 Z"/></g>
<g><path style="opacity:0.004" fill="#fefffe" d="M 391.5,62.5 C 392.833,63.1667 392.833,63.1667 391.5,62.5 Z"/></g>
<g><path style="opacity:0.004" fill="#fefffe" d="M 57.5,63.5 C 58.8333,64.1667 58.8333,64.1667 57.5,63.5 Z"/></g>
<g><path style="opacity:0.004" fill="#fefffe" d="M 171.5,66.5 C 172.833,67.1667 172.833,67.1667 171.5,66.5 Z"/></g>
<g><path style="opacity:0.004" fill="#fefffe" d="M 340.5,68.5 C 341.833,69.1667 341.833,69.1667 340.5,68.5 Z"/></g>
<g><path style="opacity:0.004" fill="#fefffe" d="M 436.5,78.5 C 437.833,79.1667 437.833,79.1667 436.5,78.5 Z"/></g>
<g><path style="opacity:0.004" fill="#fefffe" d="M 374.5,87.5 C 375.833,88.1667 375.833,88.1667 374.5,87.5 Z"/></g>
<g><path style="opacity:0.004" fill="#fefffe" d="M 297.5,92.5 C 298.833,93.1667 298.833,93.1667 297.5,92.5 Z"/></g>
<g><path style="opacity:0.004" fill="#fefffe" d="M 122.5,93.5 C 123.833,94.1667 123.833,94.1667 122.5,93.5 Z"/></g>
<g><path style="opacity:1" fill="#28acca" d="M 277.5,152.5 C 277.397,149.781 277.731,147.115 278.5,144.5C 277.148,141.623 276.148,138.79 275.5,136C 275.833,135.667 276.167,135.333 276.5,135C 275.849,127.557 275.182,120.057 274.5,112.5C 273.67,118.472 273.17,124.472 273,130.5C 272.667,130.833 272.333,131.167 272,131.5C 271.79,129.942 271.29,128.609 270.5,127.5C 270.5,122.167 270.5,116.833 270.5,111.5C 265.5,111.5 260.5,111.5 255.5,111.5C 255.5,108.167 255.5,104.833 255.5,101.5C 250.125,101.828 244.792,101.495 239.5,100.5C 238.315,99.147 236.981,97.9803 235.5,97C 231.833,96.6667 228.167,96.3333 224.5,96C 224.043,95.586 223.709,95.086 223.5,94.5C 239.49,93.6671 255.49,93.1671 271.5,93C 271.167,92.6667 270.833,92.3333 270.5,92C 253.813,91.4991 237.147,90.6657 220.5,89.5C 218.452,89.6718 216.452,90.0051 214.5,90.5C 214.833,89.8333 215.167,89.1667 215.5,88.5C 233.79,87.3597 252.123,87.193 270.5,88C 276.864,89.7017 280.364,93.8683 281,100.5C 281.667,113.5 281.667,126.5 281,139.5C 280.588,144.157 279.421,148.491 277.5,152.5 Z"/></g>
<g><path style="opacity:1" fill="#16a5c6" d="M 215.5,88.5 C 215.167,89.1667 214.833,89.8333 214.5,90.5C 213.661,91.6412 212.994,92.9745 212.5,94.5C 213.651,95.731 214.817,95.731 216,94.5C 215.981,96.1075 215.815,97.7741 215.5,99.5C 218.265,99.7976 220.765,100.798 223,102.5C 224.601,98.9643 226.434,99.1309 228.5,103C 225.949,104.516 226.282,105.349 229.5,105.5C 229.884,107.929 230.551,110.263 231.5,112.5C 233.547,112.489 235.547,112.156 237.5,111.5C 240.113,113.369 242.279,115.703 244,118.5C 246.484,115.741 247.65,116.074 247.5,119.5C 246.448,119.351 245.448,119.517 244.5,120C 247.623,121.882 250.289,124.215 252.5,127C 258.643,127.046 264.643,127.213 270.5,127.5C 271.29,128.609 271.79,129.942 272,131.5C 272.333,131.167 272.667,130.833 273,130.5C 273.17,124.472 273.67,118.472 274.5,112.5C 275.182,120.057 275.849,127.557 276.5,135C 276.167,135.333 275.833,135.667 275.5,136C 276.148,138.79 277.148,141.623 278.5,144.5C 277.731,147.115 277.397,149.781 277.5,152.5C 277.672,153.492 277.338,154.158 276.5,154.5C 273.597,149.55 269.264,147.55 263.5,148.5C 263.5,146.833 263.5,145.167 263.5,143.5C 259.445,143.824 255.445,143.491 251.5,142.5C 249.5,137.833 246.167,134.5 241.5,132.5C 236.855,128.511 232.855,123.845 229.5,118.5C 224.727,116.114 220.06,113.78 215.5,111.5C 215.334,108.832 214.334,106.498 212.5,104.5C 211.311,103.571 209.978,103.238 208.5,103.5C 208.663,101.143 208.497,98.8098 208,96.5C 207.722,97.4158 207.222,98.0825 206.5,98.5C 207.386,93.28 210.386,89.9467 215.5,88.5 Z"/></g>
<g><path style="opacity:1" fill="#12a7c9" d="M 270.5,127.5 C 264.643,127.213 258.643,127.046 252.5,127C 250.289,124.215 247.623,121.882 244.5,120C 245.448,119.517 246.448,119.351 247.5,119.5C 247.65,116.074 246.484,115.741 244,118.5C 242.279,115.703 240.113,113.369 237.5,111.5C 235.547,112.156 233.547,112.489 231.5,112.5C 230.551,110.263 229.884,107.929 229.5,105.5C 226.282,105.349 225.949,104.516 228.5,103C 226.434,99.1309 224.601,98.9643 223,102.5C 220.765,100.798 218.265,99.7976 215.5,99.5C 215.815,97.7741 215.981,96.1075 216,94.5C 214.817,95.731 213.651,95.731 212.5,94.5C 212.994,92.9745 213.661,91.6412 214.5,90.5C 216.452,90.0051 218.452,89.6718 220.5,89.5C 237.147,90.6657 253.813,91.4991 270.5,92C 270.833,92.3333 271.167,92.6667 271.5,93C 255.49,93.1671 239.49,93.6671 223.5,94.5C 223.709,95.086 224.043,95.586 224.5,96C 228.167,96.3333 231.833,96.6667 235.5,97C 236.981,97.9803 238.315,99.147 239.5,100.5C 244.792,101.495 250.125,101.828 255.5,101.5C 255.5,104.833 255.5,108.167 255.5,111.5C 260.5,111.5 265.5,111.5 270.5,111.5C 270.5,116.833 270.5,122.167 270.5,127.5 Z"/></g>
<g><path style="opacity:1" fill="#15a0c1" d="M 208.5,103.5 C 209.978,103.238 211.311,103.571 212.5,104.5C 214.334,106.498 215.334,108.832 215.5,111.5C 220.06,113.78 224.727,116.114 229.5,118.5C 232.855,123.845 236.855,128.511 241.5,132.5C 246.167,134.5 249.5,137.833 251.5,142.5C 255.445,143.491 259.445,143.824 263.5,143.5C 263.5,145.167 263.5,146.833 263.5,148.5C 269.264,147.55 273.597,149.55 276.5,154.5C 270.775,166.568 262.442,176.568 251.5,184.5C 251.281,183.325 251.614,182.325 252.5,181.5C 256.353,178.481 259.687,174.981 262.5,171C 260.015,169.513 257.848,167.679 256,165.5C 255.51,164.207 255.343,162.873 255.5,161.5C 253.453,161.489 251.453,161.156 249.5,160.5C 245.472,157.236 241.139,154.403 236.5,152C 237.624,151.751 238.624,151.251 239.5,150.5C 238.726,149.289 237.893,149.289 237,150.5C 235.13,148.595 233.63,146.428 232.5,144C 228.572,141.746 224.906,139.079 221.5,136C 220.552,135.517 219.552,135.351 218.5,135.5C 218.376,133.048 217.376,131.048 215.5,129.5C 214.902,123.714 213.735,118.047 212,112.5C 211.178,114.788 210.511,117.122 210,119.5C 209.17,114.192 208.67,108.859 208.5,103.5 Z"/></g>
<g><path style="opacity:0.004" fill="#fefffe" d="M 419.5,105.5 C 420.833,106.167 420.833,106.167 419.5,105.5 Z"/></g>
<g><path style="opacity:0.004" fill="#fefffe" d="M 374.5,108.5 C 375.833,109.167 375.833,109.167 374.5,108.5 Z"/></g>
<g><path style="opacity:0.004" fill="#fefffe" d="M 490.5,122.5 C 491.833,123.167 491.833,123.167 490.5,122.5 Z"/></g>
<g><path style="opacity:0.004" fill="#fefffe" d="M 451.5,125.5 C 452.833,126.167 452.833,126.167 451.5,125.5 Z"/></g>
<g><path style="opacity:1" fill="#1396b8" d="M 208.5,103.5 C 208.67,108.859 209.17,114.192 210,119.5C 210.511,117.122 211.178,114.788 212,112.5C 213.735,118.047 214.902,123.714 215.5,129.5C 217.376,131.048 218.376,133.048 218.5,135.5C 219.552,135.351 220.552,135.517 221.5,136C 224.906,139.079 228.572,141.746 232.5,144C 233.63,146.428 235.13,148.595 237,150.5C 237.893,149.289 238.726,149.289 239.5,150.5C 238.624,151.251 237.624,151.751 236.5,152C 241.139,154.403 245.472,157.236 249.5,160.5C 251.453,161.156 253.453,161.489 255.5,161.5C 255.343,162.873 255.51,164.207 256,165.5C 257.848,167.679 260.015,169.513 262.5,171C 259.687,174.981 256.353,178.481 252.5,181.5C 251.614,182.325 251.281,183.325 251.5,184.5C 248.345,187.495 244.678,189.495 240.5,190.5C 243.029,188.735 245.362,186.735 247.5,184.5C 247.167,184.167 246.833,183.833 246.5,183.5C 245.131,185.124 243.464,185.624 241.5,185C 235.527,181.676 229.86,177.842 224.5,173.5C 220.189,169.335 216.189,164.835 212.5,160C 209.39,159.391 207.39,157.557 206.5,154.5C 205.105,155.815 204.105,155.481 203.5,153.5C 204.908,152.757 206.241,151.923 207.5,151C 206.263,150.768 205.263,150.268 204.5,149.5C 206.486,132.866 207.152,115.866 206.5,98.5C 207.222,98.0825 207.722,97.4158 208,96.5C 208.497,98.8098 208.663,101.143 208.5,103.5 Z"/></g>
<g><path style="opacity:0.004" fill="#fefffe" d="M 163.5,140.5 C 164.833,141.167 164.833,141.167 163.5,140.5 Z"/></g>
<g><path style="opacity:0.004" fill="#fefffe" d="M 299.5,144.5 C 300.833,145.167 300.833,145.167 299.5,144.5 Z"/></g>
<g><path style="opacity:0.004" fill="#fefffe" d="M 173.5,145.5 C 174.833,146.167 174.833,146.167 173.5,145.5 Z"/></g>
<g><path style="opacity:0.004" fill="#fefffe" d="M 315.5,147.5 C 316.833,148.167 316.833,148.167 315.5,147.5 Z"/></g>
<g><path style="opacity:0.004" fill="#fefffe" d="M 368.5,149.5 C 369.833,150.167 369.833,150.167 368.5,149.5 Z"/></g>
<g><path style="opacity:1" fill="#1e7fa4" d="M 182.5,149.5 C 182.249,151.17 181.582,152.67 180.5,154C 181.211,155.255 182.044,156.421 183,157.5C 184.243,156.664 185.41,156.997 186.5,158.5C 186.167,159.167 185.833,159.833 185.5,160.5C 189.044,161.902 190.877,164.569 191,168.5C 191.718,167.549 192.551,167.383 193.5,168C 194.748,169.959 196.415,171.459 198.5,172.5C 198.291,173.086 197.957,173.586 197.5,174C 201.629,176.136 205.129,178.969 208,182.5C 208.414,182.043 208.914,181.709 209.5,181.5C 209.533,182.989 210.033,184.322 211,185.5C 211.667,184.833 212.333,184.167 213,183.5C 214.598,186.671 215.932,190.004 217,193.5C 217.333,192.833 217.667,192.167 218,191.5C 218.423,192.956 219.256,193.456 220.5,193C 219.304,192.346 219.304,191.846 220.5,191.5C 221.354,192.522 222.354,193.355 223.5,194C 222.833,194.333 222.167,194.667 221.5,195C 222.756,195.417 223.423,196.25 223.5,197.5C 215.816,199.726 208.483,202.726 201.5,206.5C 201.167,205.833 200.833,205.167 200.5,204.5C 206.278,201.929 211.944,199.095 217.5,196C 214.361,193.336 210.861,192.836 207,194.5C 204.977,192.987 205.144,191.654 207.5,190.5C 204.972,189.184 204.972,188.017 207.5,187C 206.07,185.56 204.403,185.226 202.5,186C 203.696,186.654 203.696,187.154 202.5,187.5C 201.646,186.478 200.646,185.645 199.5,185C 200.167,184.667 200.833,184.333 201.5,184C 197.297,181.403 193.297,178.57 189.5,175.5C 189.167,176.167 188.833,176.833 188.5,177.5C 186.929,176.691 185.262,176.357 183.5,176.5C 182.551,174.263 181.884,171.929 181.5,169.5C 177.467,167.973 174.467,165.139 172.5,161C 171.552,160.517 170.552,160.351 169.5,160.5C 169.5,159.167 169.5,157.833 169.5,156.5C 165.668,156.777 161.835,157.11 158,157.5C 155.705,157.453 153.871,156.787 152.5,155.5C 153.043,155.44 153.376,155.107 153.5,154.5C 149.81,152.687 147.476,153.687 146.5,157.5C 145.504,157.414 144.671,157.748 144,158.5C 143.5,177.83 143.333,197.164 143.5,216.5C 142.733,215.828 142.066,214.995 141.5,214C 142.327,195.24 142.827,176.407 143,157.5C 145.082,154.041 147.915,151.374 151.5,149.5C 162.224,149.924 172.557,149.924 182.5,149.5 Z"/></g>
<g><path style="opacity:0.004" fill="#fefffe" d="M 424.5,152.5 C 425.833,153.167 425.833,153.167 424.5,152.5 Z"/></g>
<g><path style="opacity:1" fill="#35ac94" d="M 294.5,155.5 C 297.505,155.25 299.338,156.583 300,159.5C 301.147,158.542 302.147,158.875 303,160.5C 303.667,165.5 303.667,170.5 303,175.5C 301.493,174.465 299.993,174.632 298.5,176C 300.059,176.98 301.726,177.813 303.5,178.5C 303.96,183.129 305.96,186.962 309.5,190C 308.552,190.483 307.552,190.649 306.5,190.5C 306.17,196.787 307.17,197.12 309.5,191.5C 310.833,191.5 312.167,191.5 313.5,191.5C 313.66,193.199 313.494,194.866 313,196.5C 310.577,197.786 309.077,199.286 308.5,201C 309.448,201.483 310.448,201.649 311.5,201.5C 308.375,202.479 305.042,202.813 301.5,202.5C 299.515,202.141 298.849,201.308 299.5,200C 298.224,196.5 296.391,193.333 294,190.5C 291.469,191.923 289.635,193.923 288.5,196.5C 287.883,196.389 287.383,196.056 287,195.5C 285.86,198.102 285.027,200.769 284.5,203.5C 280.691,201.407 277.191,199.407 274,197.5C 273.61,194.551 272.11,192.384 269.5,191C 271.18,190.653 272.18,189.653 272.5,188C 270.578,186.581 269.245,184.747 268.5,182.5C 271.092,177.671 273.259,173.005 275,168.5C 275.333,168.833 275.667,169.167 276,169.5C 277.441,168.74 278.941,168.074 280.5,167.5C 282.679,164.098 284.679,160.598 286.5,157C 289.254,156.728 291.921,156.228 294.5,155.5 Z"/></g>
<g><path style="opacity:1" fill="#1d719a" d="M 152.5,155.5 C 151.427,156.251 151.26,157.251 152,158.5C 153.894,162.894 156.727,166.56 160.5,169.5C 162.297,166.904 163.631,167.237 164.5,170.5C 165.325,171.386 166.325,171.719 167.5,171.5C 167.5,172.5 167.5,173.5 167.5,174.5C 168.5,174.5 169.5,174.5 170.5,174.5C 170.163,178.994 172.163,181.828 176.5,183C 176.167,183.333 175.833,183.667 175.5,184C 177.032,186.034 178.365,188.201 179.5,190.5C 183.318,192.822 186.651,195.655 189.5,199C 191.18,199.034 192.68,199.201 194,199.5C 194.188,201.061 193.355,201.728 191.5,201.5C 191.5,202.833 191.5,204.167 191.5,205.5C 193.277,205.214 194.944,204.547 196.5,203.5C 197.849,203.846 199.183,204.179 200.5,204.5C 200.833,205.167 201.167,205.833 201.5,206.5C 198.891,209.272 196.057,211.939 193,214.5C 191.021,217.974 188.855,221.307 186.5,224.5C 176.007,225.823 165.674,225.823 155.5,224.5C 165.506,224.666 175.506,224.5 185.5,224C 185.043,223.586 184.709,223.086 184.5,222.5C 185.834,219.555 187.167,216.555 188.5,213.5C 188.167,212.833 187.833,212.167 187.5,211.5C 186.23,212.562 185.063,213.562 184,214.5C 183.626,213.584 183.126,212.75 182.5,212C 184.863,211.411 185.863,209.911 185.5,207.5C 184.5,207.5 183.5,207.5 182.5,207.5C 182.5,208.5 182.5,209.5 182.5,210.5C 180.856,210.714 179.356,210.38 178,209.5C 177.591,207.009 176.424,205.009 174.5,203.5C 176.045,200.803 175.379,198.803 172.5,197.5C 171.808,198.025 171.308,198.692 171,199.5C 169.555,196.91 168.388,194.243 167.5,191.5C 166.178,191.67 165.011,191.337 164,190.5C 162.576,185.397 159.576,181.397 155,178.5C 154.517,177.552 154.351,176.552 154.5,175.5C 153.5,175.5 152.5,175.5 151.5,175.5C 152.155,170.88 150.488,168.547 146.5,168.5C 147.167,167.833 147.833,167.167 148.5,166.5C 146.87,163.724 146.203,160.724 146.5,157.5C 147.476,153.687 149.81,152.687 153.5,154.5C 153.376,155.107 153.043,155.44 152.5,155.5 Z"/></g>
<g><path style="opacity:1" fill="#0e6693" d="M 146.5,157.5 C 146.203,160.724 146.87,163.724 148.5,166.5C 147.833,167.167 147.167,167.833 146.5,168.5C 150.488,168.547 152.155,170.88 151.5,175.5C 152.5,175.5 153.5,175.5 154.5,175.5C 154.351,176.552 154.517,177.552 155,178.5C 159.576,181.397 162.576,185.397 164,190.5C 165.011,191.337 166.178,191.67 167.5,191.5C 168.388,194.243 169.555,196.91 171,199.5C 171.308,198.692 171.808,198.025 172.5,197.5C 175.379,198.803 176.045,200.803 174.5,203.5C 176.424,205.009 177.591,207.009 178,209.5C 179.356,210.38 180.856,210.714 182.5,210.5C 182.5,209.5 182.5,208.5 182.5,207.5C 183.5,207.5 184.5,207.5 185.5,207.5C 185.863,209.911 184.863,211.411 182.5,212C 183.126,212.75 183.626,213.584 184,214.5C 185.063,213.562 186.23,212.562 187.5,211.5C 187.833,212.167 188.167,212.833 188.5,213.5C 187.167,216.555 185.834,219.555 184.5,222.5C 184.709,223.086 185.043,223.586 185.5,224C 175.506,224.5 165.506,224.666 155.5,224.5C 149.639,224.641 145.639,221.974 143.5,216.5C 143.333,197.164 143.5,177.83 144,158.5C 144.671,157.748 145.504,157.414 146.5,157.5 Z"/></g>
<g><path style="opacity:1" fill="#1188ac" d="M 182.5,149.5 C 189.695,149.991 197.028,149.991 204.5,149.5C 205.263,150.268 206.263,150.768 207.5,151C 206.241,151.923 204.908,152.757 203.5,153.5C 204.105,155.481 205.105,155.815 206.5,154.5C 207.39,157.557 209.39,159.391 212.5,160C 216.189,164.835 220.189,169.335 224.5,173.5C 229.86,177.842 235.527,181.676 241.5,185C 243.464,185.624 245.131,185.124 246.5,183.5C 246.833,183.833 247.167,184.167 247.5,184.5C 245.362,186.735 243.029,188.735 240.5,190.5C 235.348,193.781 229.681,196.115 223.5,197.5C 223.423,196.25 222.756,195.417 221.5,195C 222.167,194.667 222.833,194.333 223.5,194C 222.354,193.355 221.354,192.522 220.5,191.5C 219.304,191.846 219.304,192.346 220.5,193C 219.256,193.456 218.423,192.956 218,191.5C 217.667,192.167 217.333,192.833 217,193.5C 215.932,190.004 214.598,186.671 213,183.5C 212.333,184.167 211.667,184.833 211,185.5C 210.033,184.322 209.533,182.989 209.5,181.5C 208.914,181.709 208.414,182.043 208,182.5C 205.129,178.969 201.629,176.136 197.5,174C 197.957,173.586 198.291,173.086 198.5,172.5C 196.415,171.459 194.748,169.959 193.5,168C 192.551,167.383 191.718,167.549 191,168.5C 190.877,164.569 189.044,161.902 185.5,160.5C 185.833,159.833 186.167,159.167 186.5,158.5C 185.41,156.997 184.243,156.664 183,157.5C 182.044,156.421 181.211,155.255 180.5,154C 181.582,152.67 182.249,151.17 182.5,149.5 Z"/></g>
<g><path style="opacity:1" fill="#39af95" d="M 312.5,149.5 C 317.5,149.5 322.5,149.5 327.5,149.5C 327.082,150.222 326.416,150.722 325.5,151C 329.723,151.64 333.723,152.807 337.5,154.5C 339.831,156.617 340.997,159.284 341,162.5C 341.667,170.167 341.667,177.833 341,185.5C 340.667,184.5 340.333,183.5 340,182.5C 339.952,190.942 339.118,199.276 337.5,207.5C 337.833,208.833 338.167,210.167 338.5,211.5C 336.585,213.071 335.585,215.071 335.5,217.5C 330.131,218.02 325.131,217.02 320.5,214.5C 319.5,212.833 318.167,211.5 316.5,210.5C 317.167,209.833 317.833,209.167 318.5,208.5C 317.894,206.291 317.227,204.124 316.5,202C 316.833,201.667 317.167,201.333 317.5,201C 315.288,200.211 313.288,200.378 311.5,201.5C 310.448,201.649 309.448,201.483 308.5,201C 309.077,199.286 310.577,197.786 313,196.5C 313.494,194.866 313.66,193.199 313.5,191.5C 312.167,191.5 310.833,191.5 309.5,191.5C 307.17,197.12 306.17,196.787 306.5,190.5C 307.552,190.649 308.552,190.483 309.5,190C 305.96,186.962 303.96,183.129 303.5,178.5C 301.726,177.813 300.059,176.98 298.5,176C 299.993,174.632 301.493,174.465 303,175.5C 303.667,170.5 303.667,165.5 303,160.5C 302.147,158.875 301.147,158.542 300,159.5C 299.338,156.583 297.505,155.25 294.5,155.5C 295.335,154.057 296.668,153.057 298.5,152.5C 303.571,152.128 308.238,151.128 312.5,149.5 Z"/></g>
<g><path style="opacity:1" fill="#0b749e" d="M 152.5,155.5 C 153.871,156.787 155.705,157.453 158,157.5C 161.835,157.11 165.668,156.777 169.5,156.5C 169.5,157.833 169.5,159.167 169.5,160.5C 170.552,160.351 171.552,160.517 172.5,161C 174.467,165.139 177.467,167.973 181.5,169.5C 181.884,171.929 182.551,174.263 183.5,176.5C 185.262,176.357 186.929,176.691 188.5,177.5C 188.833,176.833 189.167,176.167 189.5,175.5C 193.297,178.57 197.297,181.403 201.5,184C 200.833,184.333 200.167,184.667 199.5,185C 200.646,185.645 201.646,186.478 202.5,187.5C 203.696,187.154 203.696,186.654 202.5,186C 204.403,185.226 206.07,185.56 207.5,187C 204.972,188.017 204.972,189.184 207.5,190.5C 205.144,191.654 204.977,192.987 207,194.5C 210.861,192.836 214.361,193.336 217.5,196C 211.944,199.095 206.278,201.929 200.5,204.5C 199.183,204.179 197.849,203.846 196.5,203.5C 194.944,204.547 193.277,205.214 191.5,205.5C 191.5,204.167 191.5,202.833 191.5,201.5C 193.355,201.728 194.188,201.061 194,199.5C 192.68,199.201 191.18,199.034 189.5,199C 186.651,195.655 183.318,192.822 179.5,190.5C 178.365,188.201 177.032,186.034 175.5,184C 175.833,183.667 176.167,183.333 176.5,183C 172.163,181.828 170.163,178.994 170.5,174.5C 169.5,174.5 168.5,174.5 167.5,174.5C 167.5,173.5 167.5,172.5 167.5,171.5C 166.325,171.719 165.325,171.386 164.5,170.5C 163.631,167.237 162.297,166.904 160.5,169.5C 156.727,166.56 153.894,162.894 152,158.5C 151.26,157.251 151.427,156.251 152.5,155.5 Z"/></g>
<g><path style="opacity:0.004" fill="#fefffe" d="M 125.5,182.5 C 126.833,183.167 126.833,183.167 125.5,182.5 Z"/></g>
<g><path style="opacity:1" fill="#33a793" d="M 312.5,149.5 C 308.238,151.128 303.571,152.128 298.5,152.5C 296.668,153.057 295.335,154.057 294.5,155.5C 291.921,156.228 289.254,156.728 286.5,157C 284.679,160.598 282.679,164.098 280.5,167.5C 278.941,168.074 277.441,168.74 276,169.5C 275.667,169.167 275.333,168.833 275,168.5C 273.259,173.005 271.092,177.671 268.5,182.5C 269.245,184.747 270.578,186.581 272.5,188C 272.18,189.653 271.18,190.653 269.5,191C 272.11,192.384 273.61,194.551 274,197.5C 277.191,199.407 280.691,201.407 284.5,203.5C 285.027,200.769 285.86,198.102 287,195.5C 287.383,196.056 287.883,196.389 288.5,196.5C 287.824,200.187 286.324,203.52 284,206.5C 282.89,208.037 281.39,208.703 279.5,208.5C 279.44,207.957 279.107,207.624 278.5,207.5C 275.587,208.27 272.753,209.27 270,210.5C 266.167,209.267 262.333,209.267 258.5,210.5C 258.833,211.167 259.167,211.833 259.5,212.5C 256.578,212.899 253.578,213.066 250.5,213C 248.68,213.979 247.513,215.479 247,217.5C 242.061,213.636 242.894,211.136 249.5,210C 252.146,209.503 254.813,209.336 257.5,209.5C 257.55,207.41 256.55,206.077 254.5,205.5C 252.724,207.447 250.724,207.78 248.5,206.5C 249.376,205.749 250.376,205.249 251.5,205C 249.645,201.295 250.811,199.129 255,198.5C 255.483,197.552 255.649,196.552 255.5,195.5C 253.473,195.338 251.473,195.505 249.5,196C 248.327,199.528 245.994,200.861 242.5,200C 243.167,199.667 243.833,199.333 244.5,199C 243.244,198.583 242.577,197.75 242.5,196.5C 256.617,188.329 268.45,176.995 278,162.5C 287.606,153.381 299.106,149.048 312.5,149.5 Z"/></g>
<g><path style="opacity:0.004" fill="#fefffe" d="M 134.5,188.5 C 135.833,189.167 135.833,189.167 134.5,188.5 Z"/></g>
<g><path style="opacity:0.004" fill="#fefffe" d="M 122.5,197.5 C 123.833,198.167 123.833,198.167 122.5,197.5 Z"/></g>
<g><path style="opacity:1" fill="#2e9f92" d="M 279.5,208.5 C 278.312,209.364 277.145,210.364 276,211.5C 275.586,211.043 275.086,210.709 274.5,210.5C 265.935,213.783 257.935,218.116 250.5,223.5C 244.636,230.108 238.303,236.275 231.5,242C 230.255,242.791 228.922,243.291 227.5,243.5C 228.234,242.292 228.567,240.959 228.5,239.5C 232.308,239.198 234.808,237.198 236,233.5C 237.693,232.816 239.193,231.816 240.5,230.5C 241.423,227.107 241.923,223.441 242,219.5C 241.667,219.833 241.333,220.167 241,220.5C 238.913,217.194 236.08,216.194 232.5,217.5C 230.193,216.009 227.693,215.009 225,214.5C 223.957,216.701 223.123,219.034 222.5,221.5C 223.108,219.316 222.441,217.316 220.5,215.5C 221.954,213.737 221.62,212.403 219.5,211.5C 215.516,212.056 213.183,213.889 212.5,217C 209.563,217.1 206.896,217.933 204.5,219.5C 204.458,224.637 204.292,229.637 204,234.5C 201.807,235.773 199.64,236.106 197.5,235.5C 196.388,238.068 195.055,240.402 193.5,242.5C 195.784,223.046 206.117,209.879 224.5,203C 230.619,201.105 236.619,198.938 242.5,196.5C 242.577,197.75 243.244,198.583 244.5,199C 243.833,199.333 243.167,199.667 242.5,200C 245.994,200.861 248.327,199.528 249.5,196C 251.473,195.505 253.473,195.338 255.5,195.5C 255.649,196.552 255.483,197.552 255,198.5C 250.811,199.129 249.645,201.295 251.5,205C 250.376,205.249 249.376,205.749 248.5,206.5C 250.724,207.78 252.724,207.447 254.5,205.5C 256.55,206.077 257.55,207.41 257.5,209.5C 254.813,209.336 252.146,209.503 249.5,210C 242.894,211.136 242.061,213.636 247,217.5C 247.513,215.479 248.68,213.979 250.5,213C 253.578,213.066 256.578,212.899 259.5,212.5C 259.167,211.833 258.833,211.167 258.5,210.5C 262.333,209.267 266.167,209.267 270,210.5C 272.753,209.27 275.587,208.27 278.5,207.5C 279.107,207.624 279.44,207.957 279.5,208.5 Z"/></g>
<g><path style="opacity:1" fill="#3eab95" d="M 327.5,149.5 C 334.091,149.503 339.258,152.503 343,158.5C 343.667,177.833 343.667,197.167 343,216.5C 340.394,220.94 336.561,223.607 331.5,224.5C 327.573,222.778 323.239,221.778 318.5,221.5C 312.329,223.058 306.329,222.725 300.5,220.5C 297.868,221.44 295.202,221.607 292.5,221C 293.517,219.951 293.684,218.784 293,217.5C 291.32,218.603 289.82,218.27 288.5,216.5C 285.459,220.351 281.459,222.017 276.5,221.5C 276.5,220.5 276.5,219.5 276.5,218.5C 274.784,218.371 273.117,218.038 271.5,217.5C 275.482,215.185 279.816,213.352 284.5,212C 286.289,209.721 288.289,207.721 290.5,206C 290.043,205.586 289.709,205.086 289.5,204.5C 290.833,202.833 292.167,201.167 293.5,199.5C 295.374,203.085 298.041,205.918 301.5,208C 306.049,207.417 310.549,207.584 315,208.5C 316.756,206.726 316.756,205.059 315,203.5C 314.667,203.833 314.333,204.167 314,204.5C 309.732,203.86 305.565,203.193 301.5,202.5C 305.042,202.813 308.375,202.479 311.5,201.5C 313.288,200.378 315.288,200.211 317.5,201C 317.167,201.333 316.833,201.667 316.5,202C 317.227,204.124 317.894,206.291 318.5,208.5C 317.833,209.167 317.167,209.833 316.5,210.5C 318.167,211.5 319.5,212.833 320.5,214.5C 325.131,217.02 330.131,218.02 335.5,217.5C 335.585,215.071 336.585,213.071 338.5,211.5C 338.167,210.167 337.833,208.833 337.5,207.5C 339.118,199.276 339.952,190.942 340,182.5C 340.333,183.5 340.667,184.5 341,185.5C 341.667,177.833 341.667,170.167 341,162.5C 340.997,159.284 339.831,156.617 337.5,154.5C 333.723,152.807 329.723,151.64 325.5,151C 326.416,150.722 327.082,150.222 327.5,149.5 Z"/></g>
<g><path style="opacity:0.004" fill="#fefffe" d="M 468.5,216.5 C 469.833,217.167 469.833,217.167 468.5,216.5 Z"/></g>
<g><path style="opacity:0.004" fill="#fefffe" d="M 135.5,224.5 C 136.833,225.167 136.833,225.167 135.5,224.5 Z"/></g>
<g><path style="opacity:0.004" fill="#fefffe" d="M 422.5,226.5 C 423.833,227.167 423.833,227.167 422.5,226.5 Z"/></g>
<g><path style="opacity:0.004" fill="#fefffe" d="M 58.5,228.5 C 59.8333,229.167 59.8333,229.167 58.5,228.5 Z"/></g>
<g><path style="opacity:1" fill="#18998d" d="M 227.5,243.5 C 224.662,245.346 221.662,247.012 218.5,248.5C 217.817,248.137 217.15,247.804 216.5,247.5C 213.167,247.5 209.833,247.5 206.5,247.5C 205.834,250.028 205.168,252.694 204.5,255.5C 203.217,250.479 203.217,245.479 204.5,240.5C 203.167,239.167 201.833,239.167 200.5,240.5C 199.893,244.489 199.227,248.489 198.5,252.5C 197.692,252.808 197.025,253.308 196.5,254C 197.673,257.11 197.173,257.277 195,254.5C 194.211,250.909 194.378,247.409 195.5,244C 194.906,243.536 194.239,243.369 193.5,243.5C 192.167,243.167 192.167,242.833 193.5,242.5C 195.055,240.402 196.388,238.068 197.5,235.5C 199.64,236.106 201.807,235.773 204,234.5C 204.292,229.637 204.458,224.637 204.5,219.5C 206.896,217.933 209.563,217.1 212.5,217C 213.183,213.889 215.516,212.056 219.5,211.5C 221.62,212.403 221.954,213.737 220.5,215.5C 222.441,217.316 223.108,219.316 222.5,221.5C 223.123,219.034 223.957,216.701 225,214.5C 227.693,215.009 230.193,216.009 232.5,217.5C 236.08,216.194 238.913,217.194 241,220.5C 241.333,220.167 241.667,219.833 242,219.5C 241.923,223.441 241.423,227.107 240.5,230.5C 239.193,231.816 237.693,232.816 236,233.5C 234.808,237.198 232.308,239.198 228.5,239.5C 228.567,240.959 228.234,242.292 227.5,243.5 Z"/></g>
<g><path style="opacity:0.004" fill="#fefffe" d="M 471.5,231.5 C 472.833,232.167 472.833,232.167 471.5,231.5 Z"/></g>
<g><path style="opacity:1" fill="#239e90" d="M 331.5,224.5 C 316.339,225.331 301.005,225.831 285.5,226C 284.295,227.376 282.962,228.542 281.5,229.5C 281.19,228.262 280.69,228.262 280,229.5C 279.752,245.221 278.919,258.888 277.5,270.5C 276.5,270.5 275.5,270.5 274.5,270.5C 274.194,263.435 273.36,256.435 272,249.5C 267.025,252.519 262.525,251.853 258.5,247.5C 257.914,247.709 257.414,248.043 257,248.5C 256.138,246.913 255.471,245.246 255,243.5C 252.18,249.174 247.68,252.174 241.5,252.5C 241.762,251.022 241.429,249.689 240.5,248.5C 238.657,248.755 236.657,248.922 234.5,249C 232.985,251.105 232.485,250.939 233,248.5C 234.523,246.38 236.356,246.047 238.5,247.5C 241.113,245.061 243.113,242.228 244.5,239C 247.053,238.239 249.553,237.406 252,236.5C 253.085,238.657 254.251,238.824 255.5,237C 254.033,234.599 253.199,232.099 253,229.5C 254.816,228.671 256.649,227.837 258.5,227C 259.337,225.989 259.67,224.822 259.5,223.5C 262.908,221.106 266.908,219.106 271.5,217.5C 273.117,218.038 274.784,218.371 276.5,218.5C 276.5,219.5 276.5,220.5 276.5,221.5C 281.459,222.017 285.459,220.351 288.5,216.5C 289.82,218.27 291.32,218.603 293,217.5C 293.684,218.784 293.517,219.951 292.5,221C 295.202,221.607 297.868,221.44 300.5,220.5C 306.329,222.725 312.329,223.058 318.5,221.5C 323.239,221.778 327.573,222.778 331.5,224.5 Z"/></g>
<g><path style="opacity:0.004" fill="#fefffe" d="M 389.5,244.5 C 390.833,245.167 390.833,245.167 389.5,244.5 Z"/></g>
<g><path style="opacity:0.004" fill="#fefffe" d="M 489.5,252.5 C 490.833,253.167 490.833,253.167 489.5,252.5 Z"/></g>
<g><path style="opacity:1" fill="#1e958d" d="M 259.5,223.5 C 259.67,224.822 259.337,225.989 258.5,227C 256.649,227.837 254.816,228.671 253,229.5C 253.199,232.099 254.033,234.599 255.5,237C 254.251,238.824 253.085,238.657 252,236.5C 249.553,237.406 247.053,238.239 244.5,239C 243.113,242.228 241.113,245.061 238.5,247.5C 236.356,246.047 234.523,246.38 233,248.5C 232.485,250.939 232.985,251.105 234.5,249C 236.657,248.922 238.657,248.755 240.5,248.5C 241.429,249.689 241.762,251.022 241.5,252.5C 247.68,252.174 252.18,249.174 255,243.5C 255.471,245.246 256.138,246.913 257,248.5C 257.414,248.043 257.914,247.709 258.5,247.5C 262.525,251.853 267.025,252.519 272,249.5C 273.36,256.435 274.194,263.435 274.5,270.5C 275.5,270.5 276.5,270.5 277.5,270.5C 278.919,258.888 279.752,245.221 280,229.5C 280.69,228.262 281.19,228.262 281.5,229.5C 281.5,230.167 281.5,230.833 281.5,231.5C 280.79,247.693 280.124,264.026 279.5,280.5C 277.903,285.256 274.57,288.089 269.5,289C 255.833,289.333 242.167,289.667 228.5,290C 234.618,295.318 241.451,298.484 249,299.5C 258.865,303.117 268.865,303.784 279,301.5C 279.414,301.957 279.914,302.291 280.5,302.5C 288.132,300.73 295.799,298.063 303.5,294.5C 305.144,294.286 306.644,294.62 308,295.5C 310.313,293.963 312.813,293.463 315.5,294C 314.833,294.333 314.167,294.667 313.5,295C 314.38,296.356 314.714,297.856 314.5,299.5C 310.935,299.201 309.602,300.535 310.5,303.5C 308.374,304.73 306.208,306.063 304,307.5C 297.681,310.206 291.515,312.539 285.5,314.5C 274.5,314.5 263.5,314.5 252.5,314.5C 227.426,308.586 208.926,294.253 197,271.5C 193.338,262.396 192.171,253.062 193.5,243.5C 194.239,243.369 194.906,243.536 195.5,244C 194.378,247.409 194.211,250.909 195,254.5C 197.173,257.277 197.673,257.11 196.5,254C 197.025,253.308 197.692,252.808 198.5,252.5C 199.227,248.489 199.893,244.489 200.5,240.5C 201.833,239.167 203.167,239.167 204.5,240.5C 203.217,245.479 203.217,250.479 204.5,255.5C 205.168,252.694 205.834,250.028 206.5,247.5C 206.261,249.467 206.594,251.301 207.5,253C 211.027,253.808 214.36,253.641 217.5,252.5C 219.17,252.249 220.67,251.582 222,250.5C 225.356,250.582 228.356,249.249 231,246.5C 231.333,246.833 231.667,247.167 232,247.5C 240.69,239.809 249.023,231.809 257,223.5C 257.77,224.598 258.603,224.598 259.5,223.5 Z"/></g>
<g><path style="opacity:0.184" fill="#9ed4d1" d="M 206.5,247.5 C 209.833,247.5 213.167,247.5 216.5,247.5C 216.217,248.289 215.717,248.956 215,249.5C 212.619,248.565 210.119,248.232 207.5,248.5C 207.5,249.5 207.5,250.5 207.5,251.5C 210.833,251.833 214.167,252.167 217.5,252.5C 214.36,253.641 211.027,253.808 207.5,253C 206.594,251.301 206.261,249.467 206.5,247.5 Z"/></g>
<g><path style="opacity:0.161" fill="#ace1da" d="M 281.5,231.5 C 281.667,247.503 281.5,263.503 281,279.5C 280.617,280.056 280.117,280.389 279.5,280.5C 280.124,264.026 280.79,247.693 281.5,231.5 Z"/></g>
<g><path style="opacity:1" fill="#2b998e" d="M 310.5,303.5 C 309.602,300.535 310.935,299.201 314.5,299.5C 314.714,297.856 314.38,296.356 313.5,295C 314.167,294.667 314.833,294.333 315.5,294C 312.813,293.463 310.313,293.963 308,295.5C 306.644,294.62 305.144,294.286 303.5,294.5C 314.714,287.125 324.547,278.125 333,267.5C 332.096,263.401 330.93,259.234 329.5,255C 331.507,240.325 339.84,233.992 354.5,236C 363.374,239.21 368.041,245.544 368.5,255C 366.068,269.116 357.902,274.949 344,272.5C 335.388,285.701 324.221,296.034 310.5,303.5 Z M 348.5,247.5 C 353.937,248.726 356.27,251.893 355.5,257C 349.787,263.374 345.454,262.541 342.5,254.5C 343.143,250.866 345.143,248.533 348.5,247.5 Z"/></g>
<g><path style="opacity:0.004" fill="#fefffe" d="M 199.5,285.5 C 200.833,286.167 200.833,286.167 199.5,285.5 Z"/></g>
<g><path style="opacity:0.004" fill="#fefffe" d="M 99.5,290.5 C 100.833,291.167 100.833,291.167 99.5,290.5 Z"/></g>
<g><path style="opacity:0.004" fill="#fefffe" d="M 131.5,296.5 C 132.833,297.167 132.833,297.167 131.5,296.5 Z"/></g>
<g><path style="opacity:0.004" fill="#fefffe" d="M 351.5,304.5 C 352.833,305.167 352.833,305.167 351.5,304.5 Z"/></g>
<g><path style="opacity:0.004" fill="#fefffe" d="M 406.5,306.5 C 407.833,307.167 407.833,307.167 406.5,306.5 Z"/></g>
<g><path style="opacity:0.004" fill="#fefffe" d="M 331.5,319.5 C 332.833,320.167 332.833,320.167 331.5,319.5 Z"/></g>
<g><path style="opacity:0.004" fill="#fefffe" d="M 185.5,333.5 C 186.833,334.167 186.833,334.167 185.5,333.5 Z"/></g>
<g><path style="opacity:0.216" fill="#969ea6" d="M 298.5,334.5 C 286.167,334.5 273.833,334.5 261.5,334.5C 261.611,333.883 261.944,333.383 262.5,333C 274.167,332.333 285.833,332.333 297.5,333C 298.056,333.383 298.389,333.883 298.5,334.5 Z"/></g>
<g><path style="opacity:0.587" fill="#858d96" d="M 85.5,335.5 C 82.6085,334.597 79.6085,334.264 76.5,334.5C 76.3386,352.504 76.0052,370.504 75.5,388.5C 74.709,371.287 74.5423,353.954 75,336.5C 77.0481,332.503 80.2148,331.503 84.5,333.5C 85.2975,333.957 85.6309,334.624 85.5,335.5 Z"/></g>
<g><path style="opacity:0.478" fill="#7c8a92" d="M 298.5,334.5 C 299.117,334.611 299.617,334.944 300,335.5C 300.167,336.833 300.333,338.167 300.5,339.5C 300.415,341.333 299.748,342.666 298.5,343.5C 298.5,340.5 298.5,337.5 298.5,334.5 Z"/></g>
<g><path style="opacity:0.004" fill="#fefffe" d="M 221.5,340.5 C 222.833,341.167 222.833,341.167 221.5,340.5 Z"/></g>
<g><path style="opacity:0.004" fill="#fefffe" d="M 490.5,342.5 C 491.833,343.167 491.833,343.167 490.5,342.5 Z"/></g>
<g><path style="opacity:0.004" fill="#fefffe" d="M 357.5,344.5 C 358.833,345.167 358.833,345.167 357.5,344.5 Z"/></g>
<g><path style="opacity:0.004" fill="#fefffe" d="M 429.5,345.5 C 430.833,346.167 430.833,346.167 429.5,345.5 Z"/></g>
<g><path style="opacity:1" fill="#435669" d="M 171.5,374.5 C 170.9,370.871 170.233,367.204 169.5,363.5C 167.5,360.5 165.5,357.5 163.5,354.5C 161.189,352.441 158.689,351.774 156,352.5C 151.514,350.081 146.68,349.081 141.5,349.5C 141.646,351.942 140.813,352.609 139,351.5C 137.513,352.253 137.346,353.086 138.5,354C 137.167,355 135.833,356 134.5,357C 137.167,357.667 137.167,358.333 134.5,359C 135,359.5 135.5,360 136,360.5C 136.899,358.484 138.233,356.817 140,355.5C 140.333,356.833 140.667,358.167 141,359.5C 144.15,355.333 148.317,353.833 153.5,355C 152.944,355.383 152.611,355.883 152.5,356.5C 150.661,357.752 148.828,357.752 147,356.5C 143.535,358.632 140.701,361.465 138.5,365C 139.786,367.832 139.786,370.665 138.5,373.5C 137.681,370.695 137.181,367.695 137,364.5C 134.906,362.079 133.24,359.412 132,356.5C 128.828,363.537 127.995,370.871 129.5,378.5C 128.163,377.685 127.163,376.518 126.5,375C 127.057,371.225 127.057,367.225 126.5,363C 130.068,354.936 136.068,349.436 144.5,346.5C 154.039,345.425 162.039,348.592 168.5,356C 168.167,356.333 167.833,356.667 167.5,357C 169.679,357.442 170.345,358.442 169.5,360C 172.509,364.627 173.176,369.46 171.5,374.5 Z"/></g>
<g><path style="opacity:1" fill="#294259" d="M 359.5,346.5 C 364.148,347.5 368.815,347.667 373.5,347C 374.891,348.02 376.391,348.853 378,349.5C 380.519,358.259 377.519,360.593 369,356.5C 366.595,357.274 364.095,357.774 361.5,358C 360.833,359 360.167,360 359.5,361C 363.728,363.51 368.228,365.343 373,366.5C 373.333,366.167 373.667,365.833 374,365.5C 376.667,367.5 379,369.833 381,372.5C 383.224,379.263 381.558,384.929 376,389.5C 375.667,389.167 375.333,388.833 375,388.5C 373.981,389.687 372.814,390.687 371.5,391.5C 366.167,392.833 360.833,392.833 355.5,391.5C 354.808,390.975 354.308,390.308 354,389.5C 352.887,390.711 351.72,390.711 350.5,389.5C 349.248,387.999 348.248,386.332 347.5,384.5C 348.025,383.808 348.692,383.308 349.5,383C 348,380.833 348.5,379.333 351,378.5C 355.027,380.263 359.194,381.597 363.5,382.5C 366.383,382.133 368.717,380.8 370.5,378.5C 369.917,376.998 369.084,375.665 368,374.5C 359.65,374.783 353.15,371.283 348.5,364C 348.533,360.83 348.7,357.663 349,354.5C 351.975,350.952 355.475,348.286 359.5,346.5 Z"/></g>
<g><path style="opacity:0.004" fill="#fefffe" d="M 2.5,354.5 C 3.83333,355.167 3.83333,355.167 2.5,354.5 Z"/></g>
<g><path style="opacity:0.259" fill="#75828e" d="M 120.5,333.5 C 118.052,334.473 115.385,334.806 112.5,334.5C 112.5,342.167 112.5,349.833 112.5,357.5C 103.105,358.138 94.1045,357.471 85.5,355.5C 93.4358,356.588 101.436,356.755 109.5,356C 110.315,348.913 110.815,341.747 111,334.5C 114.11,332.408 117.277,332.075 120.5,333.5 Z"/></g>
<g><path style="opacity:0.145" fill="#6b7984" d="M 298.5,343.5 C 290.231,345.47 281.565,346.136 272.5,345.5C 272.5,349.167 272.5,352.833 272.5,356.5C 277.762,356.805 282.928,356.471 288,355.5C 290.607,356.123 293.107,356.79 295.5,357.5C 287.167,357.5 278.833,357.5 270.5,357.5C 270.5,353.167 270.5,348.833 270.5,344.5C 279.917,344.805 289.25,344.472 298.5,343.5 Z"/></g>
<g><path style="opacity:1" fill="#12344c" d="M 261.5,334.5 C 273.833,334.5 286.167,334.5 298.5,334.5C 298.5,337.5 298.5,340.5 298.5,343.5C 289.25,344.472 279.917,344.805 270.5,344.5C 270.5,348.833 270.5,353.167 270.5,357.5C 278.833,357.5 287.167,357.5 295.5,357.5C 296.473,359.948 296.806,362.615 296.5,365.5C 287.833,365.5 279.167,365.5 270.5,365.5C 270.5,370.5 270.5,375.5 270.5,380.5C 280.167,380.5 289.833,380.5 299.5,380.5C 299.5,383.5 299.5,386.5 299.5,389.5C 299.167,389.5 298.833,389.5 298.5,389.5C 286.5,389.5 274.5,389.5 262.5,389.5C 261.168,380.692 260.502,371.525 260.5,362C 260.5,352.66 260.834,343.494 261.5,334.5 Z"/></g>
<g><path style="opacity:0.922" fill="#213d54" d="M 238.5,390.5 C 234.453,390.695 230.453,390.362 226.5,389.5C 224.279,389.439 223.946,390.105 225.5,391.5C 225.167,391.5 224.833,391.5 224.5,391.5C 223.513,396.305 223.179,401.305 223.5,406.5C 220.167,406.5 216.833,406.5 213.5,406.5C 213.5,387.167 213.5,367.833 213.5,348.5C 214.492,346.974 215.992,346.307 218,346.5C 220.501,346.584 222.834,347.25 225,348.5C 226.261,348.241 227.261,347.574 228,346.5C 231.607,346.924 235.44,346.924 239.5,346.5C 246.304,348.87 251.138,352.87 254,358.5C 254.676,362.202 255.509,365.869 256.5,369.5C 256.06,371.765 255.394,373.932 254.5,376C 254.833,376.333 255.167,376.667 255.5,377C 252.053,382.782 247.553,387.615 242,391.5C 240.855,391.381 239.688,391.048 238.5,390.5 Z M 234.5,356.5 C 238.529,357.69 241.529,360.19 243.5,364C 243.5,367.333 243.5,370.667 243.5,374C 239.4,379.877 233.734,382.21 226.5,381C 225.211,377.598 224.544,373.931 224.5,370C 224.667,366.5 224.833,363 225,359.5C 228.188,358.233 231.355,357.233 234.5,356.5 Z"/></g>
<g><path style="opacity:1" fill="#17364e" d="M 120.5,333.5 C 121.117,333.611 121.617,333.944 122,334.5C 122.667,352.833 122.667,371.167 122,389.5C 118.532,390.803 115.032,390.803 111.5,389.5C 110.503,382.197 110.169,374.863 110.5,367.5C 102.92,366.501 94.5871,366.168 85.5,366.5C 86.3383,373.576 86.3383,380.576 85.5,387.5C 85.5858,388.496 85.2524,389.329 84.5,390C 81.8333,390.667 79.1667,390.667 76.5,390C 75.944,389.617 75.6107,389.117 75.5,388.5C 76.0052,370.504 76.3386,352.504 76.5,334.5C 79.6085,334.264 82.6085,334.597 85.5,335.5C 86.0235,341.643 86.0235,347.976 85.5,354.5C 85.5,354.833 85.5,355.167 85.5,355.5C 94.1045,357.471 103.105,358.138 112.5,357.5C 112.5,349.833 112.5,342.167 112.5,334.5C 115.385,334.806 118.052,334.473 120.5,333.5 Z"/></g>
<g><path style="opacity:0.004" fill="#fefffe" d="M 85.5,335.5 C 87.1734,338.952 88.1734,342.786 88.5,347C 88.1537,349.94 87.1537,352.44 85.5,354.5C 86.0235,347.976 86.0235,341.643 85.5,335.5 Z"/></g>
<g><path style="opacity:0.113" fill="#b8c7cf" d="M 331.5,360.5 C 332.451,361.919 332.784,363.585 332.5,365.5C 325.776,365.244 319.109,365.577 312.5,366.5C 313.736,364.957 315.402,363.957 317.5,363.5C 321.765,364.439 326.098,364.772 330.5,364.5C 330.433,363.041 330.766,361.708 331.5,360.5 Z"/></g>
<g><path style="opacity:0.184" fill="#d2d9df" d="M 110.5,367.5 C 102.493,367.334 94.4931,367.5 86.5,368C 87.0517,371.145 87.385,374.645 87.5,378.5C 87.3333,381.167 87.1667,383.833 87,386.5C 86.6174,387.056 86.1174,387.389 85.5,387.5C 86.3383,380.576 86.3383,373.576 85.5,366.5C 94.5871,366.168 102.92,366.501 110.5,367.5 Z"/></g>
<g><path style="opacity:1" fill="#1c3a53" d="M 423.5,372.5 C 413.442,372.16 404.775,372.494 397.5,373.5C 397.196,374.15 396.863,374.817 396.5,375.5C 400.894,381.266 406.56,382.933 413.5,380.5C 415.265,381.461 417.265,381.795 419.5,381.5C 418.857,384.988 416.857,387.488 413.5,389C 414.056,389.383 414.389,389.883 414.5,390.5C 414.167,390.5 413.833,390.5 413.5,390.5C 407.797,390.625 402.13,390.292 396.5,389.5C 388.748,385.709 384.414,379.375 383.5,370.5C 383.576,361.171 387.576,353.671 395.5,348C 400.57,347.801 405.57,347.301 410.5,346.5C 422.514,351.626 426.847,360.293 423.5,372.5 Z M 410.5,358.5 C 412.043,359.736 413.043,361.402 413.5,363.5C 407.863,364.663 402.196,364.83 396.5,364C 397.337,362.989 397.67,361.822 397.5,360.5C 399.206,357.965 401.706,356.632 405,356.5C 406.537,357.114 407.87,357.114 409,356.5C 409.278,357.416 409.778,358.082 410.5,358.5 Z"/></g>
<g><path style="opacity:0.114" fill="#c0cbd4" d="M 410.5,358.5 C 411.189,357.226 412.023,357.226 413,358.5C 414.202,360.677 414.702,363.011 414.5,365.5C 408.167,365.5 401.833,365.5 395.5,365.5C 395.077,363.219 395.744,361.552 397.5,360.5C 397.67,361.822 397.337,362.989 396.5,364C 402.196,364.83 407.863,364.663 413.5,363.5C 413.043,361.402 412.043,359.736 410.5,358.5 Z"/></g>
<g><path style="opacity:0.153" fill="#939fa8" d="M 296.5,365.5 C 288.677,366.329 280.677,366.829 272.5,367C 272.629,370.955 272.629,375.122 272.5,379.5C 281.682,379.173 290.682,379.507 299.5,380.5C 289.833,380.5 280.167,380.5 270.5,380.5C 270.5,375.5 270.5,370.5 270.5,365.5C 279.167,365.5 287.833,365.5 296.5,365.5 Z"/></g>
<g><path style="opacity:0.278" fill="#818e99" d="M 213.5,348.5 C 213.5,367.833 213.5,387.167 213.5,406.5C 212.168,397.358 211.502,387.858 211.5,378C 211.667,368.5 211.833,359 212,349.5C 212.383,348.944 212.883,348.611 213.5,348.5 Z"/></g>
<g><path style="opacity:1" fill="#233e55" d="M 342.5,357.5 C 342.576,367.615 342.409,377.949 342,388.5C 341.283,389.044 340.783,389.711 340.5,390.5C 337.498,391.813 334.498,391.48 331.5,389.5C 320.157,395.269 310.99,392.936 304,382.5C 303.712,379.47 303.545,376.636 303.5,374C 305.374,370.074 308.374,367.574 312.5,366.5C 319.109,365.577 325.776,365.244 332.5,365.5C 332.784,363.585 332.451,361.919 331.5,360.5C 329.79,358.8 327.79,357.467 325.5,356.5C 323.5,357.833 321.5,357.833 319.5,356.5C 316.351,358.675 313.017,359.342 309.5,358.5C 307.661,356.473 307.161,354.14 308,351.5C 310.328,349.301 312.995,347.635 316,346.5C 321.277,346.471 326.777,346.638 332.5,347C 335.618,348.783 338.451,350.95 341,353.5C 341.791,354.745 342.291,356.078 342.5,357.5 Z M 320.5,372.5 C 324.119,373.244 327.785,373.577 331.5,373.5C 331.578,376.777 330.244,379.277 327.5,381C 324.259,382.223 321.092,382.723 318,382.5C 314.395,378.998 314.728,375.998 319,373.5C 320.107,374.712 320.607,374.379 320.5,372.5 Z"/></g>
<g><path style="opacity:0.047" fill="#c0cfd2" d="M 423.5,372.5 C 423.217,373.289 422.717,373.956 422,374.5C 414.182,374.213 406.015,373.879 397.5,373.5C 404.775,372.494 413.442,372.16 423.5,372.5 Z"/></g>
<g><path style="opacity:0.067" fill="#9eaeb8" d="M 342.5,357.5 C 344.534,367.704 345.034,378.037 344,388.5C 343.184,389.823 342.017,390.489 340.5,390.5C 340.783,389.711 341.283,389.044 342,388.5C 342.409,377.949 342.576,367.615 342.5,357.5 Z"/></g>
<g><path style="opacity:0.004" fill="#fefffe" d="M 494.5,375.5 C 495.833,376.167 495.833,376.167 494.5,375.5 Z"/></g>
<g><path style="opacity:0.004" fill="#fefffe" d="M 497.5,379.5 C 498.833,380.167 498.833,380.167 497.5,379.5 Z"/></g>
<g><path style="opacity:0.129" fill="#cee5eb" d="M 299.5,380.5 C 300.239,380.369 300.906,380.536 301.5,381C 301.224,383.609 301.224,386.276 301.5,389C 300.906,389.464 300.239,389.631 299.5,389.5C 299.5,386.5 299.5,383.5 299.5,380.5 Z"/></g>
<g><path style="opacity:1" fill="#1e3b53" d="M 171.5,374.5 C 171.061,377.445 169.895,380.445 168,383.5C 165.929,384.103 164.762,385.436 164.5,387.5C 162.685,388.63 160.685,389.296 158.5,389.5C 153.87,390.229 149.203,390.563 144.5,390.5C 143.175,391.953 142.342,391.619 142,389.5C 141.667,390.167 141.333,390.833 141,391.5C 137.034,388.536 133.367,385.203 130,381.5C 129.517,380.552 129.351,379.552 129.5,378.5C 127.995,370.871 128.828,363.537 132,356.5C 133.24,359.412 134.906,362.079 137,364.5C 137.181,367.695 137.681,370.695 138.5,373.5C 139.808,376.118 141.642,378.451 144,380.5C 144.333,380.167 144.667,379.833 145,379.5C 146.313,380.573 147.813,381.24 149.5,381.5C 152.248,380.36 154.915,379.026 157.5,377.5C 158.111,375.033 159.111,372.366 160.5,369.5C 160.125,367.541 159.459,365.707 158.5,364C 158.833,363.667 159.167,363.333 159.5,363C 157.218,360.542 154.884,358.376 152.5,356.5C 152.611,355.883 152.944,355.383 153.5,355C 148.317,353.833 144.15,355.333 141,359.5C 140.667,358.167 140.333,356.833 140,355.5C 138.233,356.817 136.899,358.484 136,360.5C 135.5,360 135,359.5 134.5,359C 137.167,358.333 137.167,357.667 134.5,357C 135.833,356 137.167,355 138.5,354C 137.346,353.086 137.513,352.253 139,351.5C 140.813,352.609 141.646,351.942 141.5,349.5C 146.68,349.081 151.514,350.081 156,352.5C 158.689,351.774 161.189,352.441 163.5,354.5C 165.5,357.5 167.5,360.5 169.5,363.5C 170.233,367.204 170.9,370.871 171.5,374.5 Z M 152.5,356.5 C 154.884,358.376 157.218,360.542 159.5,363C 159.167,363.333 158.833,363.667 158.5,364C 159.459,365.707 160.125,367.541 160.5,369.5C 159.111,372.366 158.111,375.033 157.5,377.5C 154.915,379.026 152.248,380.36 149.5,381.5C 147.813,381.24 146.313,380.573 145,379.5C 144.667,379.833 144.333,380.167 144,380.5C 141.642,378.451 139.808,376.118 138.5,373.5C 139.786,370.665 139.786,367.832 138.5,365C 140.701,361.465 143.535,358.632 147,356.5C 148.828,357.752 150.661,357.752 152.5,356.5 Z"/></g>
<g><path style="opacity:1" fill="#2a4359" d="M 185.5,346.5 C 189.379,346.926 193.379,346.926 197.5,346.5C 204.004,347.516 206.337,351.183 204.5,357.5C 201.231,358.55 198.064,358.216 195,356.5C 192.26,357.282 189.426,357.782 186.5,358C 186.043,358.414 185.709,358.914 185.5,359.5C 186.748,361.459 188.415,362.959 190.5,364C 203.547,364.745 209.047,371.245 207,383.5C 204.842,387.084 201.842,389.751 198,391.5C 192.197,392.748 186.364,392.748 180.5,391.5C 177.554,390.221 175.221,388.221 173.5,385.5C 174.167,384.833 174.833,384.167 175.5,383.5C 174.159,381.166 174.826,379.499 177.5,378.5C 181.767,380.016 185.767,381.349 189.5,382.5C 195.385,382.164 196.885,379.497 194,374.5C 184.229,374.762 177.396,370.262 173.5,361C 174.551,354.082 178.551,349.249 185.5,346.5 Z"/></g>
<g><path style="opacity:0.004" fill="#fefffe" d="M 164.5,387.5 C 165.833,388.167 165.833,388.167 164.5,387.5 Z"/></g>
<g><path style="opacity:1" fill="#5a6875" d="M 414.5,390.5 C 414.389,389.883 414.056,389.383 413.5,389C 416.857,387.488 418.857,384.988 419.5,381.5C 417.265,381.795 415.265,381.461 413.5,380.5C 421.962,376.124 424.462,378.791 421,388.5C 419.488,389.257 418.154,390.257 417,391.5C 416.049,391.116 415.216,390.783 414.5,390.5 Z"/></g>
<g><path style="opacity:0.13" fill="#6a7881" d="M 262.5,389.5 C 274.5,389.5 286.5,389.5 298.5,389.5C 289.432,390.179 280.265,390.845 271,391.5C 268.061,390.872 265.228,390.205 262.5,389.5 Z"/></g>
<g><path style="opacity:0.278" fill="#979ca5" d="M 158.5,389.5 C 158.209,390.649 157.376,391.316 156,391.5C 152.529,392.455 149.029,392.622 145.5,392C 144.944,391.617 144.611,391.117 144.5,390.5C 149.203,390.563 153.87,390.229 158.5,389.5 Z"/></g>
<g><path style="opacity:0.278" fill="#8d929f" d="M 238.5,390.5 C 238.389,391.117 238.056,391.617 237.5,392C 233.683,393.023 230.183,392.523 227,390.5C 226.617,391.056 226.117,391.389 225.5,391.5C 223.946,390.105 224.279,389.439 226.5,389.5C 230.453,390.362 234.453,390.695 238.5,390.5 Z"/></g>
<g><path style="opacity:0.02" fill="#7e8189" d="M 396.5,389.5 C 402.13,390.292 407.797,390.625 413.5,390.5C 413.389,391.117 413.056,391.617 412.5,392C 407.428,392.751 402.428,392.418 397.5,391C 396.944,390.617 396.611,390.117 396.5,389.5 Z"/></g>
<g><path style="opacity:0.004" fill="#fefffe" d="M 323.5,400.5 C 324.833,401.167 324.833,401.167 323.5,400.5 Z"/></g>
<g><path style="opacity:0.455" fill="#758085" d="M 224.5,391.5 C 224.828,396.875 224.495,402.208 223.5,407.5C 219.724,409.186 216.391,408.853 213.5,406.5C 216.833,406.5 220.167,406.5 223.5,406.5C 223.179,401.305 223.513,396.305 224.5,391.5 Z"/></g>
<g><path style="opacity:0.004" fill="#fefffe" d="M 108.5,413.5 C 109.833,414.167 109.833,414.167 108.5,413.5 Z"/></g>
<g><path style="opacity:0.004" fill="#fefffe" d="M 268.5,414.5 C 269.833,415.167 269.833,415.167 268.5,414.5 Z"/></g>
<g><path style="opacity:0.004" fill="#fefffe" d="M 185.5,419.5 C 186.833,420.167 186.833,420.167 185.5,419.5 Z"/></g>
<g><path style="opacity:0.004" fill="#fefffe" d="M 321.5,423.5 C 322.833,424.167 322.833,424.167 321.5,423.5 Z"/></g>
<g><path style="opacity:0.004" fill="#fefffe" d="M 402.5,423.5 C 403.833,424.167 403.833,424.167 402.5,423.5 Z"/></g>
<g><path style="opacity:0.004" fill="#fefffe" d="M 40.5,426.5 C 41.8333,427.167 41.8333,427.167 40.5,426.5 Z"/></g>
<g><path style="opacity:0.004" fill="#fefffe" d="M 181.5,427.5 C 182.833,428.167 182.833,428.167 181.5,427.5 Z"/></g>
<g><path style="opacity:0.004" fill="#fefffe" d="M 2.5,438.5 C 3.83333,439.167 3.83333,439.167 2.5,438.5 Z"/></g>
<g><path style="opacity:0.004" fill="#fefffe" d="M 467.5,440.5 C 468.833,441.167 468.833,441.167 467.5,440.5 Z"/></g>
<g><path style="opacity:0.004" fill="#fefffe" d="M 233.5,442.5 C 234.833,443.167 234.833,443.167 233.5,442.5 Z"/></g>
<g><path style="opacity:0.004" fill="#fefffe" d="M 386.5,445.5 C 387.833,446.167 387.833,446.167 386.5,445.5 Z"/></g>
<g><path style="opacity:0.004" fill="#fefffe" d="M 98.5,448.5 C 99.8333,449.167 99.8333,449.167 98.5,448.5 Z"/></g>
<g><path style="opacity:0.004" fill="#fefffe" d="M 232.5,451.5 C 233.833,452.167 233.833,452.167 232.5,451.5 Z"/></g>
<g><path style="opacity:0.004" fill="#fefffe" d="M 260.5,454.5 C 261.833,455.167 261.833,455.167 260.5,454.5 Z"/></g>
<g><path style="opacity:0.004" fill="#fefffe" d="M 219.5,458.5 C 220.833,459.167 220.833,459.167 219.5,458.5 Z"/></g>
<g><path style="opacity:0.004" fill="#fefffe" d="M 324.5,474.5 C 325.833,475.167 325.833,475.167 324.5,474.5 Z"/></g>
<g><path style="opacity:0.004" fill="#fefffe" d="M 145.5,480.5 C 146.833,481.167 146.833,481.167 145.5,480.5 Z"/></g>
<g><path style="opacity:0.004" fill="#fefffe" d="M 371.5,481.5 C 372.833,482.167 372.833,482.167 371.5,481.5 Z"/></g>
<g><path style="opacity:0.004" fill="#fefffe" d="M 28.5,488.5 C 29.8333,489.167 29.8333,489.167 28.5,488.5 Z"/></g>
<g><path style="opacity:0.004" fill="#fefffe" d="M 216.5,491.5 C 217.833,492.167 217.833,492.167 216.5,491.5 Z"/></g>
<g><path style="opacity:0.004" fill="#fefffe" d="M 404.5,494.5 C 405.833,495.167 405.833,495.167 404.5,494.5 Z"/></g>
<g><path style="opacity:0.004" fill="#fefffe" d="M 275.5,499.5 C 274.833,498.167 274.833,498.167 275.5,499.5 Z"/></g>
</svg>
